<svg width="100" height="100" xmlns="http://www.w3.org/2000/svg">
 <!-- Created with Method Draw - http://github.com/duopixel/Method-Draw/ -->

 <g>
  <title>background</title>
  <rect fill="none" id="canvas_background" height="102" width="102" y="-1" x="-1"/>
  <g display="none" overflow="visible" y="0" x="0" height="100%" width="100%" id="canvasGrid">
   <rect fill="url(#gridpattern)" stroke-width="0" y="0" x="0" height="100%" width="100%"/>
  </g>
 </g>
 <g>
  <title>Layer 1</title>
  <path stroke="#000" id="svg_7" d="m33.9933,32.9542c-16.86457,0 -30.53571,13.67097 -30.53571,30.53571c0,16.86439 13.67114,30.53572 30.53571,30.53572c16.86476,0 30.53571,-13.67133 30.53571,-30.53572c0,-16.86474 -13.67095,-30.53571 -30.53571,-30.53571zm2.63681,47.09113l0,4.30103l-4.11372,0l0,-4.25257c-6.75052,-0.92447 -9.7087,-6.47101 -9.7087,-6.47101l4.20626,-3.5148c0,0 2.68089,4.67051 7.53417,4.67051c2.68068,0 4.71457,-1.43497 4.71457,-3.88505c0,-5.73324 -15.44015,-5.03802 -15.44015,-15.67101c0,-4.62244 3.65146,-7.95251 8.69166,-8.73797l0,-4.3006l4.11389,0l0,4.29822c3.51283,0.46244 7.6728,2.3114 7.6728,6.28829l0,3.05073l-5.45435,0l0,-1.47904c0,-1.52521 -1.94335,-2.54228 -4.11569,-2.54228c-2.77326,0 -4.80716,1.38657 -4.80716,3.32807c0,5.86995 15.44015,4.43731 15.44015,15.57887c0.00221,4.57792 -3.41822,8.55318 -8.73373,9.33862l0,0z" stroke-opacity="null" stroke-width="0.6" fill="#f7c699"/>
  <path stroke="#000" id="svg_3" d="m42.47768,2.55909l0,46.08603l55.71428,0l0,-46.08603l-55.71428,0zm46.94444,42.13031l-38.1746,0l0,-38.1746l38.1746,0l0,38.1746zm-28.88889,-23.21428c2.94254,0 5.33,-2.38746 5.33,-5.33c0,-2.9446 -2.38746,-5.33 -5.33,-5.33c-2.9446,0 -5.33,2.38746 -5.33,5.33c0,2.94254 2.3854,5.33 5.33,5.33zm26.82746,4.64286l-10.14619,-10.14619l-14.27317,14.27317l-3.95571,-3.95571l-5.67873,5.67873l0,10.65794l34.05381,0l0,-16.50793z" stroke-opacity="null" stroke-width="0.6" fill="#93acf2"/>
  <path stroke="#000" id="svg_2" d="m87.70417,67.32818l0,-31.98742c0,-4.1365 -3.36286,-7.48594 -7.49488,-7.48594c-4.14097,0 -7.49041,3.34944 -7.49041,7.48594l0,31.73475c-4.7089,2.58028 -7.9063,7.58209 -7.9063,13.32846c0,8.38926 6.80174,15.18877 15.18877,15.18877c8.3915,0 15.18877,-6.79951 15.18877,-15.18877c0.00224,-5.57421 -3.00958,-10.43739 -7.48594,-13.0758zm-7.70059,25.77149c-6.99627,0 -12.69122,-5.69719 -12.69122,-12.70016c0,-4.63288 2.53109,-8.89906 6.60498,-11.13277l1.29908,-0.70656l0,-33.22166c0,-2.75245 2.24265,-4.98839 4.99957,-4.98839c2.75245,0 4.99063,2.23594 4.99063,4.98839l0,33.40948l1.2253,0.72445c3.92632,2.31644 6.27406,6.39704 6.27406,10.92706c-0.00447,7.00298 -5.70166,12.70016 -12.7024,12.70016zm5.16056,-21.47401l-2.4573,-1.44666l0,-21.82058l-4.99286,0l0,21.67748l-2.59593,1.41982c-3.27342,1.79993 -5.31037,5.21869 -5.31037,8.94378c0,5.62116 4.57698,10.19814 10.19591,10.19814c5.6234,0 10.19591,-4.57698 10.19591,-10.19814c0.00447,-3.58198 -1.92515,-6.94261 -5.03535,-8.77384z" stroke-opacity="null" stroke-width="0.6" fill="#f26a6a"/>
 </g>
</svg>