<svg width="100" height="100" xmlns="http://www.w3.org/2000/svg">
 <!-- Created with Method Draw - http://github.com/duopixel/Method-Draw/ -->

 <g>
  <title>background</title>
  <rect fill="none" id="canvas_background" height="102" width="102" y="-1" x="-1"/>
  <g display="none" overflow="visible" y="0" x="0" height="100%" width="100%" id="canvasGrid">
   <rect fill="url(#gridpattern)" stroke-width="0" y="0" x="0" height="100%" width="100%"/>
  </g>
 </g>
 <g>
  <title>Layer 1</title>
  <path stroke="#000" id="svg_7" d="m26.85045,36.16849c-11.53891,0 -20.89286,9.35382 -20.89286,20.89285c0,11.53879 9.35394,20.89286 20.89286,20.89286c11.53905,0 20.89286,-9.35407 20.89286,-20.89286c0,-11.53903 -9.35381,-20.89285 -20.89286,-20.89285zm1.80413,32.22024l0,2.94281l-2.81465,0l0,-2.90966c-4.61878,-0.63253 -6.64279,-4.42753 -6.64279,-4.42753l2.87796,-2.40486c0,0 1.8343,3.19561 5.15496,3.19561c1.83415,0 3.22576,-0.98182 3.22576,-2.65819c0,-3.92274 -10.56432,-3.44706 -10.56432,-10.72227c0,-3.16273 2.49837,-5.44119 5.94693,-5.97861l0,-2.94252l2.81476,0l0,2.94089c2.40351,0.3164 5.24981,1.58148 5.24981,4.30251l0,2.08734l-3.73192,0l0,-1.01198c0,-1.04356 -1.32966,-1.73945 -2.816,-1.73945c-1.89749,0 -3.28911,0.9487 -3.28911,2.2771c0,4.01628 10.56431,3.03605 10.56431,10.65922c0.00151,3.13226 -2.33878,5.85218 -5.97571,6.38959l0,0z" stroke-opacity="null" stroke-width="0.6" fill="#f7c699"/>
  <path stroke="#000" id="svg_3" d="m49.62054,9.77684l0,35.15537l42.5,0l0,-35.15537l-42.5,0zm35.81018,32.13787l-29.12037,0l0,-29.12037l29.12037,0l0,29.12037zm-22.03704,-17.70833c2.24463,0 4.06583,-1.8212 4.06583,-4.06583c0,-2.2462 -1.8212,-4.06583 -4.06583,-4.06583c-2.2462,0 -4.06583,1.8212 -4.06583,4.06583c0,2.24463 1.81963,4.06583 4.06583,4.06583zm20.46454,3.54167l-7.73972,-7.73972l-10.88787,10.88787l-3.0175,-3.0175l-4.33185,4.33185l0,8.13009l25.97694,0l0,-12.59259z" stroke-opacity="null" stroke-width="0.6" fill="#93acf2"/>
  <path stroke="#000" id="svg_2" d="m71.94399,75.71959l0,-18.4489c0,-2.38574 -1.93955,-4.31755 -4.32271,-4.31755c-2.38832,0 -4.32013,1.93181 -4.32013,4.31755l0,18.30318c-2.71588,1.48819 -4.56,4.37301 -4.56,7.68726c0,4.83855 3.92294,8.7602 8.7602,8.7602c4.83984,0 8.7602,-3.92165 8.7602,-8.7602c0.00129,-3.21495 -1.73579,-6.01981 -4.31755,-7.54153zm-4.44135,14.86384c-4.03513,0 -7.31972,-3.28588 -7.31972,-7.32488c0,-2.67203 1.45982,-5.13258 3.80945,-6.42088l0.74925,-0.40751l0,-19.16075c0,-1.58749 1.29346,-2.87708 2.88353,-2.87708c1.58749,0 2.87837,1.28959 2.87837,2.87708l0,19.26908l0.7067,0.41783c2.26452,1.33602 3.61859,3.68952 3.61859,6.30224c-0.00258,4.039 -3.28846,7.32488 -7.32617,7.32488zm2.97638,-12.38524l-1.41726,-0.83437l0,-12.58513l-2.87966,0l0,12.50259l-1.49722,0.81889c-1.88796,1.03812 -3.06278,3.00991 -3.06278,5.15837c0,3.24203 2.63979,5.88183 5.88054,5.88183c3.24332,0 5.88054,-2.63979 5.88054,-5.88183c0.00258,-2.06593 -1.11034,-4.00418 -2.90416,-5.06036z" stroke-opacity="null" stroke-width="0.6" fill="#f26a6a"/>
 </g>
</svg>